<svg version="1.1" xmlns="http://www.w3.org/2000/svg" xmlns:xlink="http://www.w3.org/1999/xlink" x="0px" y="0px" viewBox="0 0 1000 1000" enable-background="new 0 0 1000 1000" xml:space="preserve">
<g transform="translate(0.000000,512.000000) scale(0.100000,-0.100000)"><path fill="#CCD7E2" d="M4626.9,5010.4c-632-53.6-1214.1-214.5-1781-492.2c-499.8-245.1-856-497.9-1262-890.5c-417.5-407.9-722-827.3-980.5-1352c-317.9-649.2-471.1-1262-499.8-1982.1C72.9-533.7,241.4-1307.4,616.8-2060c1129.9-2269.3,3807.1-3305.4,6160.7-2386.1c1118.4,438.6,2064.4,1298.4,2600.6,2367c327.5,654.9,492.2,1300.3,519,2037.6c38.3,1118.4-302.6,2198.5-980.5,3102.4C7984,4303.7,6499.8,5039.1,4962,5019.9C4820.3,5018,4669,5014.2,4626.9,5010.4z M5680.2,4355.4c1212.2-204.9,2242.5-877.1,2916.6-1905.5c325.6-494.1,547.7-1080.1,649.2-1706.3c45.9-293,45.9-930.7,0-1235.2c-189.6-1227.6-856-2275.1-1882.5-2960.7c-517.1-344.7-1112.6-574.5-1750.4-672.2c-304.5-45.9-942.2-45.9-1235.2,0c-961.4,155.1-1813.6,595.6-2462.8,1271.6C1290.9-2201.7,904-1416.5,754.6-501.1c-46,294.9-46,951.8,1.9,1244.8c155.1,955.6,553.5,1740.8,1216.1,2405.3c725.8,725.8,1648.9,1156.7,2683,1250.5C4862.4,4418.6,5456.1,4391.8,5680.2,4355.4z"/><path fill="#637E9C" d="M4875.8,3464.9c-78.5-34.5-158.9-132.1-172.4-208.7c-5.7-34.5-9.6-777.5-5.7-1654.6c5.7-1574.2,5.7-1593.3,45.9-1645c21.1-28.7,63.2-70.9,91.9-91.9c51.7-40.2,69-40.2,1466.9-40.2c1398,0,1415.2,0,1466.9,40.2c101.5,74.7,132.1,136,132.1,256.6c0,120.6-30.6,181.9-132.1,256.6c-51.7,40.2-74.7,40.2-1258.2,46l-1204.6,3.8l-3.8,1434.4c-5.7,1415.2-5.7,1436.3-46,1488c-21.1,28.7-61.3,70.9-88.1,90C5105.6,3487.9,4952.4,3501.3,4875.8,3464.9z"/></g>
</svg>