<?xml version="1.0" encoding="UTF-8"?>
<svg width="25px" height="25px" viewBox="0 0 25 25" version="1.1" xmlns="http://www.w3.org/2000/svg" xmlns:xlink="http://www.w3.org/1999/xlink">
    <!-- Generator: sketchtool 52.3 (67297) - http://www.bohemiancoding.com/sketch -->
    <title>B8B1684F-6129-4A7B-B51A-48F9DFEFA3ED</title>
    <desc>Created with sketchtool.</desc>
    <g id="Design" stroke="none" stroke-width="1" fill="none" fill-rule="evenodd">
        <g id="UI-elements-states" transform="translate(-346.000000, -427.000000)">
            <g id="New" transform="translate(339.000000, 408.000000)">
                <g id="Group-2" transform="translate(2.390977, 15.000000)">
                    <g id="Buttons/Close" transform="translate(16.970563, 16.970563) rotate(-315.000000) translate(-16.970563, -16.970563) translate(4.970563, 4.970563)">
                        <g>
                            <path d="M12,0 L12,0 C18.627417,-1.21743675e-15 24,5.372583 24,12 L24,12 C24,18.627417 18.627417,24 12,24 L12,24 C5.372583,24 8.11624501e-16,18.627417 0,12 L0,12 C-8.11624501e-16,5.372583 5.372583,1.21743675e-15 12,0 Z" id="Rectangle-12-Copy-2" fill="#F89400" transform="translate(12.000000, 12.000000) scale(1, -1) translate(-12.000000, -12.000000) "></path>
                            <g id="Group" transform="translate(7.000000, 7.000000)" stroke="#FFFFFF" stroke-linecap="round" stroke-linejoin="round" stroke-width="2">
                                <path d="M0,0 L10,10" id="Path-12-Copy"></path>
                                <path d="M1.10134124e-13,10 L10,0" id="Path-12-Copy"></path>
                            </g>
                        </g>
                    </g>
                </g>
            </g>
        </g>
    </g>
</svg>