<svg width="24px" height="24px" viewBox="0 0 24 24" version="1.1" xmlns="http://www.w3.org/2000/svg" xmlns:xlink="http://www.w3.org/1999/xlink">
    <g id="Symbols" stroke="none" stroke-width="1" fill="none" fill-rule="evenodd">
        <g id="Icons/data-integer">
            <rect id="Rectangle" stroke="#CCD7E2" x="0.5" y="4.5" width="23" height="15" rx="4"></rect>
            <path d="M7.91796875,16 L6.53125,16 L6.53125,10.5703125 L5.17871094,11.0927734 L5.17871094,9.94042969 L7.77148438,8.88085938 L7.91796875,8.88085938 L7.91796875,16 Z M14.1240234,16 L9.93457031,16 L9.93457031,15.0234375 L11.8583984,12.5771484 C12.1025403,12.2386051 12.2823887,11.9415703 12.3979492,11.6860352 C12.5135097,11.4305 12.5712891,11.185548 12.5712891,10.9511719 C12.5712891,10.6354151 12.5167649,10.3880217 12.4077148,10.2089844 C12.2986648,10.029947 12.1416026,9.94042969 11.9365234,9.94042969 C11.7119129,9.94042969 11.5336921,10.0445953 11.4018555,10.2529297 C11.2700189,10.4612641 11.2041016,10.7542299 11.2041016,11.1318359 L9.81738281,11.1318359 C9.81738281,10.6956358 9.90771394,10.2968768 10.0883789,9.93554688 C10.2690439,9.57421694 10.5229476,9.29345803 10.8500977,9.09326172 C11.1772477,8.89306541 11.547524,8.79296875 11.9609375,8.79296875 C12.5957063,8.79296875 13.0880516,8.96793445 13.4379883,9.31787109 C13.7879249,9.66780774 13.9628906,10.1650358 13.9628906,10.8095703 C13.9628906,11.2099629 13.8660491,11.6160461 13.6723633,12.027832 C13.4786774,12.4396179 13.1279322,12.9466116 12.6201172,13.5488281 L11.7070312,14.8525391 L14.1240234,14.8525391 L14.1240234,16 Z M16.2236328,11.8154297 L16.8925781,11.8154297 C17.1464856,11.8154297 17.3328445,11.7267261 17.4516602,11.5493164 C17.5704759,11.3719067 17.6298828,11.1350926 17.6298828,10.8388672 C17.6298828,10.5556626 17.5688483,10.3351245 17.4467773,10.1772461 C17.3247064,10.0193677 17.1611338,9.94042969 16.9560547,9.94042969 C16.7639964,9.94042969 16.6069342,10.0152987 16.4848633,10.1650391 C16.3627924,10.3147794 16.3017578,10.5035796 16.3017578,10.7314453 L14.9199219,10.7314453 C14.9199219,10.3603497 15.0053702,10.027508 15.1762695,9.73291016 C15.3471688,9.43831233 15.5864242,9.20800864 15.894043,9.04199219 C16.2016617,8.87597573 16.5426414,8.79296875 16.9169922,8.79296875 C17.5712923,8.79296875 18.0839825,8.97363101 18.4550781,9.33496094 C18.8261737,9.69629087 19.0117188,10.1910776 19.0117188,10.8193359 C19.0117188,11.1416032 18.927898,11.4402656 18.7602539,11.715332 C18.5926098,11.9903985 18.3720717,12.2011711 18.0986328,12.3476562 C18.4339209,12.4908861 18.6837557,12.7057277 18.8481445,12.9921875 C19.0125334,13.2786473 19.0947266,13.6171855 19.0947266,14.0078125 C19.0947266,14.6393261 18.8937195,15.1455059 18.4916992,15.5263672 C18.089679,15.9072285 17.5615267,16.0976562 16.9072266,16.0976562 C16.2984996,16.0976562 15.8045266,15.9096698 15.425293,15.5336914 C15.0460593,15.157713 14.8564453,14.66374 14.8564453,14.0517578 L16.2382812,14.0517578 C16.2382812,14.3056653 16.3050124,14.5188793 16.4384766,14.6914062 C16.5719408,14.8639332 16.7412099,14.9501953 16.9462891,14.9501953 C17.1839205,14.9501953 17.3719069,14.8623056 17.5102539,14.6865234 C17.648601,14.5107413 17.7177734,14.2763687 17.7177734,13.9833984 C17.7177734,13.2835251 17.4459663,12.9319662 16.9023438,12.9287109 L16.2236328,12.9287109 L16.2236328,11.8154297 Z" id="123" fill="#637E9C"></path>
        </g>
    </g>
</svg>