<?xml version="1.0" encoding="UTF-8"?>
<svg width="86px" height="32px" viewBox="0 0 86 32" version="1.1" xmlns="http://www.w3.org/2000/svg" xmlns:xlink="http://www.w3.org/1999/xlink">
    <!-- Generator: sketchtool 52.3 (67297) - http://www.bohemiancoding.com/sketch -->
    <title>485D5351-18AA-45AD-ABBB-BEC192EAC241</title>
    <desc>Created with sketchtool.</desc>
    <g id="Symbols" stroke="none" stroke-width="1" fill="none" fill-rule="evenodd">
        <g id="logo-eva-white-32h">
            <g id="logo-eva-120px">
                <g id="Group">
                    <path d="M9.23427332,20.5885383 C9.63846912,20.5885383 9.97658938,20.7230447 10.2486443,20.9920616 C10.5206991,21.2610785 10.6567245,21.5723649 10.6567245,21.92593 C10.6567245,22.3102398 10.5206991,22.6253692 10.2486443,22.8713275 C9.97658938,23.1172859 9.63846912,23.2402632 9.23427332,23.2402632 L1.42245119,23.2402632 C1.01825539,23.2402632 0.680135127,23.1057567 0.40808026,22.8367398 C0.136025393,22.5677229 0,22.2333783 0,21.833696 L0,8.50589605 C0,8.10621378 0.136025393,7.7718692 0.40808026,7.50285228 C0.680135127,7.23383537 1.01825539,7.09932893 1.42245119,7.09932893 L9.23427332,7.09932893 C9.63846912,7.09932893 9.97658938,7.22614929 10.2486443,7.47979381 C10.5206991,7.73343833 10.6567245,8.06009682 10.6567245,8.4597791 C10.6567245,8.84408898 10.5245856,9.15537531 10.2603037,9.39364744 C9.99602182,9.63191956 9.65401511,9.75105384 9.23427332,9.75105384 L2.914859,9.75105384 L2.914859,13.670995 L8.18492408,13.670995 C8.58911988,13.670995 8.92724014,13.7978154 9.19929501,14.0514599 C9.47134988,14.3051044 9.60737527,14.6317629 9.60737527,15.0314452 C9.60737527,15.4157551 9.47523632,15.7270414 9.21095445,15.9653135 C8.94667258,16.2035856 8.60466587,16.3227199 8.18492408,16.3227199 L2.914859,16.3227199 L2.914859,20.5885383 L9.23427332,20.5885383 Z M25.7207158,7.05321197 C26.1093656,7.05321197 26.4474859,7.18387537 26.7350868,7.44520609 C27.0226876,7.70653681 27.1664859,8.02166618 27.1664859,8.39060367 C27.1664859,8.5904448 27.1198486,8.79796903 27.0265727,9.01318256 L21.2668113,22.3409825 C21.1268973,22.6330581 20.9325754,22.8559544 20.6838395,23.0096784 C20.4351036,23.1634023 20.1708257,23.2402632 19.8909978,23.2402632 C19.626716,23.2248908 19.3818703,23.1441869 19.1564534,22.9981492 C18.9310365,22.8521114 18.7561467,22.6407441 18.6317787,22.364041 L12.8720174,8.99012408 C12.7942874,8.83640013 12.755423,8.64424807 12.755423,8.41366214 C12.755423,7.99860747 12.9108806,7.66426289 13.2218004,7.41061837 C13.5327203,7.15697385 13.8514083,7.0301535 14.1778742,7.0301535 C14.4421561,7.0301535 14.6908882,7.10701432 14.9240781,7.26073827 C15.157268,7.41446222 15.3360442,7.63735861 15.4604121,7.92943412 L20.1475054,18.836094 L24.4381779,7.92943412 C24.5625458,7.652731 24.741322,7.4375207 24.9745119,7.28379675 C25.2077018,7.1300728 25.456434,7.05321197 25.7207158,7.05321197 Z M42.8834056,21.4417019 C42.9611356,21.6415431 43,21.826009 43,21.9951054 C43,22.3947877 42.867861,22.7214462 42.6035792,22.9750907 C42.3392973,23.2287352 42.036155,23.3555556 41.6941432,23.3555556 C41.4143153,23.3555556 41.1616967,23.2710087 40.9362798,23.1019123 C40.7108629,22.932816 40.5359731,22.7022335 40.4116052,22.410158 L39.1990239,19.6200822 L32.25,19.6200822 L31.0374187,22.4332165 C30.9285967,22.725292 30.7614798,22.9520314 30.5360629,23.1134415 C30.310646,23.2748517 30.0658003,23.3555556 29.8015184,23.3555556 C29.3973226,23.3555556 29.0902939,23.2479504 28.880423,23.0327369 C28.6705521,22.8175233 28.5656182,22.5254522 28.5656182,22.1565147 C28.5656182,22.0181632 28.5889369,21.8721276 28.6355748,21.7184037 L34.441974,7.92943412 C34.5663419,7.62198621 34.752891,7.38371766 35.0016269,7.21462132 C35.2503628,7.04552497 35.5301864,6.97635023 35.8411063,7.00709502 C36.1209342,7.00709502 36.3813256,7.08779888 36.6222885,7.24920903 C36.8632514,7.41061918 37.0381412,7.63735861 37.1469631,7.92943412 L42.8834056,21.4417019 Z M33.3926247,16.9683573 L38.0563991,16.9683573 L35.7011931,11.5726736 L33.3926247,16.9683573 Z" id="EVA" fill="#FFFFFF"></path>
                    <polygon id="Path" fill="#F89400" points="63 30 54 32 56 23 56 -2.84217094e-14 86 -2.84217094e-14 86 30"></polygon>
                    <path d="M66,21.5761905 C66,22.3626079 65.328,23 64.5,23 C63.6715,23 63,22.3626079 63,21.5761905 L63,11.4238095 C63,10.6373921 63.6715,10 64.5,10 C65.328,10 66,10.6373921 66,11.4238095 L66,21.5761905 Z M71.9990991,21.5789474 C71.9990991,22.3638421 71.3270991,23 70.4990991,23 C69.6705991,23 68.9990991,22.3638421 68.9990991,21.5789474 L68.9990991,15.4210526 C68.9990991,14.6366316 69.6705991,14 70.4990991,14 C71.3270991,14 71.9990991,14.6366316 71.9990991,15.4210526 L71.9990991,21.5789474 Z M77.9981982,21.5428571 C77.9981982,22.3476857 77.3261982,23 76.4981982,23 C75.6696982,23 74.9981982,22.3476857 74.9981982,21.5428571 L74.9981982,7.45714286 C74.9981982,6.6528 75.6696982,6 76.4981982,6 C77.3261982,6 77.9981982,6.6528 77.9981982,7.45714286 L77.9981982,21.5428571 Z" id="Combined-Shape" fill="#FFFFFF"></path>
                </g>
            </g>
        </g>
    </g>
</svg>