<?xml version="1.0" encoding="UTF-8"?>
<svg width="22px" height="18px" viewBox="0 0 22 18" version="1.1" xmlns="http://www.w3.org/2000/svg" xmlns:xlink="http://www.w3.org/1999/xlink">
    <!-- Generator: Sketch 52.2 (67145) - http://www.bohemiancoding.com/sketch -->
    <title>Icons/i-parent-folder</title>
    <desc>Created with Sketch.</desc>
    <g id="Design" stroke="none" stroke-width="1" fill="none" fill-rule="evenodd">
        <g id="Icons" transform="translate(-149.000000, -131.000000)" stroke="#F89400">
            <g id="Icons/i-parent-folder" transform="translate(148.000000, 128.000000)">
                <g id="i-parent-folder">
                    <g id="Group-52" transform="translate(2.000000, 4.000000)" stroke-width="2">
                        <path d="M8,0 L2,0 C0.89,0 0,0.89 0,2 L0,14 C0,15.1045695 0.8954305,16 2,16 L18,16 C19.1045695,16 20,15.1045695 20,14 L20,4 C20,2.89 19.1,2 18,2 L10,2 L8,0 Z" id="Path" fill-rule="nonzero"></path>
                        <path d="M10,6 L10,12 L10,6 Z" id="Rectangle" stroke-linecap="round" stroke-linejoin="round"></path>
                        <path d="M10,6 L6.96875,9 L10,6 Z" id="Rectangle" stroke-linecap="round" stroke-linejoin="round"></path>
                        <path d="M13,6 L9.96875,9 L13,6 Z" id="Rectangle" stroke-linecap="round" stroke-linejoin="round" transform="translate(11.484375, 7.500000) scale(-1, 1) translate(-11.484375, -7.500000) "></path>
                    </g>
                </g>
            </g>
        </g>
    </g>
</svg>