<?xml version="1.0" encoding="UTF-8"?>
<svg width="12px" height="24px" viewBox="0 0 12 24" version="1.1" xmlns="http://www.w3.org/2000/svg" xmlns:xlink="http://www.w3.org/1999/xlink">
    <!-- Generator: sketchtool 52.3 (67297) - http://www.bohemiancoding.com/sketch -->
    <title>10537DB4-601D-436D-99DB-7286C097B9BC</title>
    <desc>Created with sketchtool.</desc>
    <g id="Symbols" stroke="none" stroke-width="1" fill="none" fill-rule="evenodd">
        <g id="Icons/More">
            <g id="More">
                <rect id="Bounds" x="0" y="0" width="12" height="24"></rect>
                <path d="M6,7 C6.54771525,7 7,6.54771525 7,6 C7,5.45228475 6.54771525,5 6,5 C5.45228475,5 5,5.45228475 5,6 C5,6.54771525 5.45228475,7 6,7 Z M6,11 C5.45228475,11 5,11.4522847 5,12 C5,12.5477153 5.45228475,13 6,13 C6.54771525,13 7,12.5477153 7,12 C7,11.4522847 6.54771525,11 6,11 Z M6,17 C5.45228475,17 5,17.4522847 5,18 C5,18.5477153 5.45228475,19 6,19 C6.54771525,19 7,18.5477153 7,18 C7,17.4522847 6.54771525,17 6,17 Z" id="Shape" stroke="#FFFFFF" stroke-width="2"></path>
            </g>
        </g>
    </g>
</svg>