<svg xmlns="http://www.w3.org/2000/svg" viewBox="0 0 177.26 69"><defs><style>.cls-1{fill:#fff;fill-rule:evenodd;}</style></defs><title>square-invert</title><g id="Layer_2" data-name="Layer 2"><g id="Layer_1-2" data-name="Layer 1"><path class="cls-1" d="M55.15,14.12a2.78,2.78,0,0,0-1.6.5A3.2,3.2,0,0,0,52.4,16L43.2,39.67,33.15,16A3.13,3.13,0,0,0,32,14.57a2.78,2.78,0,0,0-1.6-.5,3.2,3.2,0,0,0-2,.82,2.68,2.68,0,0,0-1,2.18,2.76,2.76,0,0,0,.25,1.25L40,47.32a3.08,3.08,0,0,0,1.13,1.37,2.85,2.85,0,0,0,3.27,0,3.43,3.43,0,0,0,1.25-1.45L58,18.37a3.45,3.45,0,0,0,.3-1.35,2.69,2.69,0,0,0-.92-2A3.12,3.12,0,0,0,55.15,14.12ZM19.8,20a3.13,3.13,0,0,0,2.2-.78,2.6,2.6,0,0,0,.85-2A2.8,2.8,0,0,0,22,15a3.06,3.06,0,0,0-2.18-.82H3.05a2.94,2.94,0,0,0-2.17.87A2.93,2.93,0,0,0,0,17.27v28.9a2.93,2.93,0,0,0,.88,2.17,3,3,0,0,0,2.17.88H19.8a3.14,3.14,0,0,0,2.18-.8,2.68,2.68,0,0,0,.87-2.05,2.79,2.79,0,0,0-.87-2,3,3,0,0,0-2.18-.87H6.25V34.22h11.3a3.13,3.13,0,0,0,2.2-.78,2.6,2.6,0,0,0,.85-2,2.8,2.8,0,0,0-.87-2.13,3.06,3.06,0,0,0-2.18-.82H6.25V20ZM92,45.32,79.65,16a3,3,0,0,0-2.8-2,2.58,2.58,0,0,0-1.8.45A3.31,3.31,0,0,0,73.85,16L61.4,45.92a3.29,3.29,0,0,0-.15.95,2.4,2.4,0,0,0,2.65,2.6,2.66,2.66,0,0,0,1.58-.53,3.07,3.07,0,0,0,1.07-1.47l2.6-6.1h14.9l2.6,6.05a3.66,3.66,0,0,0,1.12,1.5,2.69,2.69,0,0,0,1.63.55,2.74,2.74,0,0,0,1.95-.83,2.82,2.82,0,0,0,.85-2.12A3.27,3.27,0,0,0,92,45.32ZM71.6,35.62l5-11.7,5,11.7Z"/><path class="cls-1" d="M113.26,0V51l-5,18,18-5h51V0Zm23,46a3,3,0,0,1-6,0V24a3,3,0,0,1,6,0Zm12,0a3,3,0,0,1-6,0V33a3,3,0,0,1,6,0Zm12,0a3,3,0,0,1-6,0V17a3,3,0,0,1,6,0Z"/></g></g></svg>