<?xml version="1.0" encoding="UTF-8"?>
<svg width="16px" height="16px" viewBox="0 0 16 16" version="1.1" xmlns="http://www.w3.org/2000/svg" xmlns:xlink="http://www.w3.org/1999/xlink">
    <!-- Generator: Sketch 52.2 (67145) - http://www.bohemiancoding.com/sketch -->
    <title>t-merge</title>
    <desc>Created with Sketch.</desc>
    <g id="Design" stroke="none" stroke-width="1" fill="none" fill-rule="evenodd">
        <g id="Icons" transform="translate(-328.000000, -236.000000)" stroke="#F89400" stroke-width="2">
            <g id="Icons/t-merge" transform="translate(324.000000, 232.000000)">
                <path d="M10,5 L6,5 C5.44771525,5 5,5.44771525 5,6 L5,18 C5,18.5522847 5.44771525,19 6,19 L10,19" id="Path-16" stroke-linecap="round" stroke-linejoin="round"></path>
                <path d="M19,5 L15,5 C14.4477153,5 14,5.44771525 14,6 L14,18 C14,18.5522847 14.4477153,19 15,19 L19,19" id="Path-16" stroke-linecap="round" stroke-linejoin="round" transform="translate(16.500000, 12.000000) scale(-1, 1) translate(-16.500000, -12.000000) "></path>
                <path d="M9.58578644,12 L10.2928932,12.7071068 L10.2928932,11.2928932 L9.58578644,12 Z M9,12.5857864 L7.29289322,14.2928932 L9,15 L9,12.5857864 Z M9,11.4142136 L9,9 L7.29289322,9.70710678 L9,11.4142136 Z" id="Path-19"></path>
                <path d="M14.5857864,12 L15.2928932,12.7071068 L15.2928932,11.2928932 L14.5857864,12 Z M14,12.5857864 L12.2928932,14.2928932 L14,15 L14,12.5857864 Z M14,11.4142136 L14,9 L12.2928932,9.70710678 L14,11.4142136 Z" id="Path-19" transform="translate(14.500000, 12.000000) scale(-1, 1) translate(-14.500000, -12.000000) "></path>
            </g>
        </g>
    </g>
</svg>