<?xml version="1.0" encoding="UTF-8"?>
<svg width="18px" height="18px" viewBox="0 0 18 18" version="1.1" xmlns="http://www.w3.org/2000/svg" xmlns:xlink="http://www.w3.org/1999/xlink">
    <!-- Generator: Sketch 52.2 (67145) - http://www.bohemiancoding.com/sketch -->
    <title>t-pivot</title>
    <desc>Created with Sketch.</desc>
    <g id="Design" stroke="none" stroke-width="1" fill="none" fill-rule="evenodd">
        <g id="Icons" transform="translate(-503.000000, -235.000000)" stroke="#F89400" stroke-width="2">
            <g id="Icons/t-pivot" transform="translate(500.000000, 232.000000)">
                <path d="M18.0857864,12.5 L18.7928932,13.2071068 L18.7928932,11.7928932 L18.0857864,12.5 Z M17.5,13.0857864 L15.7928932,14.7928932 L17.5,15.5 L17.5,13.0857864 Z M17.5,11.9142136 L17.5,9.5 L15.7928932,10.2071068 L17.5,11.9142136 Z" id="Path-19" transform="translate(18.000000, 12.500000) rotate(-90.000000) translate(-18.000000, -12.500000) "></path>
                <path d="M4,12 L5,12 L4,11 L4,12 L4,11 L3,12 L4,12 L3,12 L4,13 L4,12 L4,13 L5,12 L4,12 Z M4,16 L5,16 L4,15 L4,16 L4,15 L3,16 L4,16 L3,16 L4,17 L4,16 L4,17 L5,16 L4,16 Z M4,20 L5,20 L4,19 L4,20 L4,19 L3,20 L4,20 L3,20 L4,21 L4,20 L4,21 L5,20 L4,20 Z M9,12 L10,12 L9,11 L9,12 L9,11 L8,12 L9,12 L8,12 L9,13 L9,12 L9,13 L10,12 L9,12 Z M9,16 L10,16 L9,15 L9,16 L9,15 L8,16 L9,16 L8,16 L9,17 L9,16 L9,17 L10,16 L9,16 Z M9,20 L10,20 L9,19 L9,20 L9,19 L8,20 L9,20 L8,20 L9,21 L9,20 L9,21 L10,20 L9,20 Z" id="Shape"></path>
                <rect id="Rectangle" stroke-linecap="round" stroke-linejoin="round" x="4" y="4" width="16" height="4" rx="1"></rect>
                <path d="M18,14 L18,17 C18,18.6568542 16.6568542,20 15,20 L13,20" id="Path-21" stroke-linecap="round" stroke-linejoin="round"></path>
                <path d="M9,5 L9,7" id="Path-18" stroke-linecap="round" stroke-linejoin="round"></path>
            </g>
        </g>
    </g>
</svg>