<?xml version="1.0" encoding="UTF-8"?>
<svg width="12px" height="18px" viewBox="0 0 12 18" version="1.1" xmlns="http://www.w3.org/2000/svg" xmlns:xlink="http://www.w3.org/1999/xlink">
    <!-- Generator: Sketch 52.2 (67145) - http://www.bohemiancoding.com/sketch -->
    <title>t-split</title>
    <desc>Created with Sketch.</desc>
    <g id="Design" stroke="none" stroke-width="1" fill="none" fill-rule="evenodd">
        <g id="Icons" transform="translate(-418.000000, -235.000000)" stroke="#F89400" stroke-width="2">
            <g id="Icons/t-split" transform="translate(412.000000, 232.000000)">
                <path d="M12,4 L12,20" id="Path-20" stroke-linecap="round" stroke-linejoin="round"></path>
                <path d="M16.5857864,12 L17.2928932,12.7071068 L17.2928932,11.2928932 L16.5857864,12 Z M16,12.5857864 L14.2928932,14.2928932 L16,15 L16,12.5857864 Z M16,11.4142136 L16,9 L14.2928932,9.70710678 L16,11.4142136 Z" id="Path-19"></path>
                <path d="M7.58578644,12 L8.29289322,12.7071068 L8.29289322,11.2928932 L7.58578644,12 Z M7,12.5857864 L5.29289322,14.2928932 L7,15 L7,12.5857864 Z M7,11.4142136 L7,9 L5.29289322,9.70710678 L7,11.4142136 Z" id="Path-19" transform="translate(7.500000, 12.000000) scale(-1, 1) translate(-7.500000, -12.000000) "></path>
            </g>
        </g>
    </g>
</svg>