<?xml version="1.0" encoding="UTF-8"?>
<svg width="18px" height="18px" viewBox="0 0 18 18" version="1.1" xmlns="http://www.w3.org/2000/svg" xmlns:xlink="http://www.w3.org/1999/xlink">
    <!-- Generator: Sketch 52.2 (67145) - http://www.bohemiancoding.com/sketch -->
    <title>t-unpivot</title>
    <desc>Created with Sketch.</desc>
    <g id="Design" stroke="none" stroke-width="1" fill="none" fill-rule="evenodd">
        <g id="Icons" transform="translate(-591.000000, -235.000000)" stroke="#F89400">
            <g id="Icons/t-unpivot" transform="translate(588.000000, 232.000000)">
                <g id="Group" stroke-width="1" fill-rule="evenodd" transform="translate(12.500000, 12.000000) scale(-1, 1) rotate(90.000000) translate(-12.500000, -12.000000) translate(3.500000, 3.500000)">
                    <path d="M15.0857864,8.5 L15.7928932,9.20710678 L15.7928932,7.79289322 L15.0857864,8.5 Z M14.5,9.08578644 L12.7928932,10.7928932 L14.5,11.5 L14.5,9.08578644 Z M14.5,7.91421356 L14.5,5.5 L12.7928932,6.20710678 L14.5,7.91421356 Z" id="Path-19" stroke-width="2" transform="translate(15.000000, 8.500000) rotate(-90.000000) translate(-15.000000, -8.500000) "></path>
                    <path d="M1,8 L2,8 L1,7 L1,8 L1,7 L0,8 L1,8 L0,8 L1,9 L1,8 L1,9 L2,8 L1,8 Z M1,12 L2,12 L1,11 L1,12 L1,11 L0,12 L1,12 L0,12 L1,13 L1,12 L1,13 L2,12 L1,12 Z M1,16 L2,16 L1,15 L1,16 L1,15 L0,16 L1,16 L0,16 L1,17 L1,16 L1,17 L2,16 L1,16 Z M6,8 L7,8 L6,7 L6,8 L6,7 L5,8 L6,8 L5,8 L6,9 L6,8 L6,9 L7,8 L6,8 Z M6,12 L7,12 L6,11 L6,12 L6,11 L5,12 L6,12 L5,12 L6,13 L6,12 L6,13 L7,12 L6,12 Z M6,16 L7,16 L6,15 L6,16 L6,15 L5,16 L6,16 L5,16 L6,17 L6,16 L6,17 L7,16 L6,16 Z" id="Shape" stroke-width="2"></path>
                    <rect id="Rectangle" stroke-width="2" stroke-linecap="round" stroke-linejoin="round" x="1" y="0" width="16" height="4" rx="1"></rect>
                    <path d="M15,10 L15,13 C15,14.6568542 13.6568542,16 12,16 L10,16" id="Path-21" stroke-width="2" stroke-linecap="round" stroke-linejoin="round"></path>
                </g>
                <path d="M5,9 L7,9" id="Path-31" stroke-width="2" stroke-linecap="round" stroke-linejoin="round"></path>
            </g>
        </g>
    </g>
</svg>